<mxfile host="app.diagrams.net" agent="Mozilla/5.0 (Windows NT 10.0; Win64; x64) AppleWebKit/537.36 (KHTML, like Gecko) Chrome/130.0.0.0 Safari/537.36 Edg/130.0.0.0" version="24.8.6" pages="3">
  <diagram name="SD1" id="IPUVujdmmtZPShG0CMn7">
    <mxGraphModel dx="2097" dy="539" grid="1" gridSize="10" guides="1" tooltips="1" connect="1" arrows="1" fold="1" page="1" pageScale="1" pageWidth="827" pageHeight="1169" math="0" shadow="0">
      <root>
        <mxCell id="0" />
        <mxCell id="1" parent="0" />
        <mxCell id="YJB3zisdZ_xQfk0tqpdA-2" value="readerService(a: service)" style="shape=umlFrame;whiteSpace=wrap;html=1;pointerEvents=0;width=140;height=50;" parent="1" vertex="1">
          <mxGeometry x="-40" y="40" width="870" height="690" as="geometry" />
        </mxCell>
        <mxCell id="YJB3zisdZ_xQfk0tqpdA-5" value=":LibraryStaff" style="shape=umlLifeline;perimeter=lifelinePerimeter;whiteSpace=wrap;html=1;container=1;dropTarget=0;collapsible=0;recursiveResize=0;outlineConnect=0;portConstraint=eastwest;newEdgeStyle={&quot;curved&quot;:0,&quot;rounded&quot;:0};" parent="1" vertex="1">
          <mxGeometry x="360" y="120" width="100" height="610" as="geometry" />
        </mxCell>
        <mxCell id="YJB3zisdZ_xQfk0tqpdA-24" value="" style="html=1;points=[[0,0,0,0,5],[0,1,0,0,-5],[1,0,0,0,5],[1,1,0,0,-5]];perimeter=orthogonalPerimeter;outlineConnect=0;targetShapes=umlLifeline;portConstraint=eastwest;newEdgeStyle={&quot;curved&quot;:0,&quot;rounded&quot;:0};" parent="YJB3zisdZ_xQfk0tqpdA-5" vertex="1">
          <mxGeometry x="45" y="150" width="10" height="420" as="geometry" />
        </mxCell>
        <mxCell id="YJB3zisdZ_xQfk0tqpdA-6" value=":Reader" style="shape=umlLifeline;perimeter=lifelinePerimeter;whiteSpace=wrap;html=1;container=1;dropTarget=0;collapsible=0;recursiveResize=0;outlineConnect=0;portConstraint=eastwest;newEdgeStyle={&quot;curved&quot;:0,&quot;rounded&quot;:0};" parent="1" vertex="1">
          <mxGeometry x="530" y="120" width="100" height="610" as="geometry" />
        </mxCell>
        <mxCell id="YJB3zisdZ_xQfk0tqpdA-32" value="" style="html=1;points=[[0,0,0,0,5],[0,1,0,0,-5],[1,0,0,0,5],[1,1,0,0,-5]];perimeter=orthogonalPerimeter;outlineConnect=0;targetShapes=umlLifeline;portConstraint=eastwest;newEdgeStyle={&quot;curved&quot;:0,&quot;rounded&quot;:0};" parent="YJB3zisdZ_xQfk0tqpdA-6" vertex="1">
          <mxGeometry x="45" y="220" width="10" height="30" as="geometry" />
        </mxCell>
        <mxCell id="YJB3zisdZ_xQfk0tqpdA-7" value=":P&lt;span style=&quot;white-space-collapse: preserve;&quot; data-src-align=&quot;0:12&quot; class=&quot;EzKURWReUAB5oZgtQNkl&quot;&gt;references&lt;/span&gt;" style="shape=umlLifeline;perimeter=lifelinePerimeter;whiteSpace=wrap;html=1;container=1;dropTarget=0;collapsible=0;recursiveResize=0;outlineConnect=0;portConstraint=eastwest;newEdgeStyle={&quot;curved&quot;:0,&quot;rounded&quot;:0};" parent="1" vertex="1">
          <mxGeometry x="710" y="120" width="100" height="610" as="geometry" />
        </mxCell>
        <mxCell id="KaEUx5yTtzWXcer0-Ha--4" value="" style="html=1;points=[[0,0,0,0,5],[0,1,0,0,-5],[1,0,0,0,5],[1,1,0,0,-5]];perimeter=orthogonalPerimeter;outlineConnect=0;targetShapes=umlLifeline;portConstraint=eastwest;newEdgeStyle={&quot;curved&quot;:0,&quot;rounded&quot;:0};" vertex="1" parent="YJB3zisdZ_xQfk0tqpdA-7">
          <mxGeometry x="45" y="430" width="10" height="30" as="geometry" />
        </mxCell>
        <mxCell id="YJB3zisdZ_xQfk0tqpdA-13" value="" style="text;strokeColor=none;fillColor=none;align=left;verticalAlign=middle;spacingTop=-1;spacingLeft=4;spacingRight=4;rotatable=0;labelPosition=right;points=[];portConstraint=eastwest;" parent="1" vertex="1">
          <mxGeometry x="340" y="260" width="10" height="14" as="geometry" />
        </mxCell>
        <mxCell id="YJB3zisdZ_xQfk0tqpdA-16" value="" style="shape=umlLifeline;perimeter=lifelinePerimeter;whiteSpace=wrap;html=1;container=1;dropTarget=0;collapsible=0;recursiveResize=0;outlineConnect=0;portConstraint=eastwest;newEdgeStyle={&quot;curved&quot;:0,&quot;rounded&quot;:0};participant=umlActor;size=60;" parent="1" vertex="1">
          <mxGeometry x="100" y="90" width="30" height="640" as="geometry" />
        </mxCell>
        <mxCell id="YJB3zisdZ_xQfk0tqpdA-18" value="" style="html=1;points=[[0,0,0,0,5],[0,1,0,0,-5],[1,0,0,0,5],[1,1,0,0,-5]];perimeter=orthogonalPerimeter;outlineConnect=0;targetShapes=umlLifeline;portConstraint=eastwest;newEdgeStyle={&quot;curved&quot;:0,&quot;rounded&quot;:0};" parent="YJB3zisdZ_xQfk0tqpdA-16" vertex="1">
          <mxGeometry x="9.97" y="90" width="10" height="520" as="geometry" />
        </mxCell>
        <mxCell id="YJB3zisdZ_xQfk0tqpdA-19" value="identification = getID()" style="html=1;align=left;spacingLeft=2;endArrow=block;rounded=0;edgeStyle=orthogonalEdgeStyle;curved=0;rounded=0;" parent="YJB3zisdZ_xQfk0tqpdA-16" target="YJB3zisdZ_xQfk0tqpdA-18" edge="1">
          <mxGeometry relative="1" as="geometry">
            <mxPoint x="20" y="100" as="sourcePoint" />
            <Array as="points">
              <mxPoint x="50" y="100" />
              <mxPoint x="50" y="130" />
            </Array>
          </mxGeometry>
        </mxCell>
        <mxCell id="YJB3zisdZ_xQfk0tqpdA-17" value="&lt;font style=&quot;font-size: 11px;&quot;&gt;Reader&lt;/font&gt;" style="text;html=1;align=center;verticalAlign=middle;resizable=0;points=[];autosize=1;strokeColor=none;fillColor=none;" parent="1" vertex="1">
          <mxGeometry x="85" y="150" width="60" height="30" as="geometry" />
        </mxCell>
        <mxCell id="YJB3zisdZ_xQfk0tqpdA-23" value="" style="endArrow=block;endFill=1;html=1;edgeStyle=orthogonalEdgeStyle;align=left;verticalAlign=top;rounded=0;" parent="1" edge="1">
          <mxGeometry x="-1" relative="1" as="geometry">
            <mxPoint x="120" y="269.66" as="sourcePoint" />
            <mxPoint x="410" y="270" as="targetPoint" />
            <mxPoint as="offset" />
          </mxGeometry>
        </mxCell>
        <mxCell id="YJB3zisdZ_xQfk0tqpdA-25" value="" style="html=1;align=left;spacingLeft=2;endArrow=block;rounded=0;edgeStyle=orthogonalEdgeStyle;curved=0;rounded=0;" parent="1" edge="1">
          <mxGeometry relative="1" as="geometry">
            <mxPoint x="414" y="280" as="sourcePoint" />
            <Array as="points">
              <mxPoint x="414" y="280" />
              <mxPoint x="444" y="280" />
              <mxPoint x="444" y="300" />
            </Array>
            <mxPoint x="414" y="299.98" as="targetPoint" />
          </mxGeometry>
        </mxCell>
        <mxCell id="YJB3zisdZ_xQfk0tqpdA-26" value="&lt;font style=&quot;font-size: 9px;&quot;&gt;id_res = identificationAnalysis(&lt;/font&gt;&lt;div&gt;&lt;font style=&quot;font-size: 9px;&quot;&gt;identification:string[*])&lt;/font&gt;&lt;/div&gt;" style="text;html=1;align=center;verticalAlign=middle;resizable=0;points=[];autosize=1;strokeColor=none;fillColor=none;" parent="1" vertex="1">
          <mxGeometry x="419" y="250" width="140" height="40" as="geometry" />
        </mxCell>
        <mxCell id="YJB3zisdZ_xQfk0tqpdA-33" value="" style="endArrow=block;endFill=1;html=1;edgeStyle=orthogonalEdgeStyle;align=left;verticalAlign=top;rounded=0;" parent="1" source="YJB3zisdZ_xQfk0tqpdA-24" target="YJB3zisdZ_xQfk0tqpdA-32" edge="1">
          <mxGeometry x="-1" relative="1" as="geometry">
            <mxPoint x="420" y="330" as="sourcePoint" />
            <mxPoint x="582.8399999999999" y="329.58" as="targetPoint" />
            <mxPoint as="offset" />
            <Array as="points">
              <mxPoint x="510" y="340" />
              <mxPoint x="510" y="340" />
            </Array>
          </mxGeometry>
        </mxCell>
        <mxCell id="YJB3zisdZ_xQfk0tqpdA-35" value="&lt;span style=&quot;font-size: 9px; background-color: initial;&quot;&gt;Reader.getReaderPreferences()&lt;/span&gt;" style="text;html=1;align=center;verticalAlign=middle;resizable=0;points=[];autosize=1;strokeColor=none;fillColor=none;" parent="1" vertex="1">
          <mxGeometry x="415" y="305" width="150" height="30" as="geometry" />
        </mxCell>
        <mxCell id="YJB3zisdZ_xQfk0tqpdA-36" value="" style="endArrow=open;endSize=12;dashed=1;html=1;rounded=0;" parent="1" source="YJB3zisdZ_xQfk0tqpdA-32" edge="1">
          <mxGeometry width="160" relative="1" as="geometry">
            <mxPoint x="570" y="370" as="sourcePoint" />
            <mxPoint x="414" y="370" as="targetPoint" />
          </mxGeometry>
        </mxCell>
        <mxCell id="YJB3zisdZ_xQfk0tqpdA-37" value="&lt;font style=&quot;font-size: 9px;&quot;&gt;preferences = Preferences[*]&lt;/font&gt;" style="text;html=1;align=center;verticalAlign=middle;resizable=0;points=[];autosize=1;strokeColor=none;fillColor=none;" parent="1" vertex="1">
          <mxGeometry x="419" y="348" width="140" height="30" as="geometry" />
        </mxCell>
        <mxCell id="YJB3zisdZ_xQfk0tqpdA-38" value="" style="html=1;align=left;spacingLeft=2;endArrow=block;rounded=0;edgeStyle=orthogonalEdgeStyle;curved=0;rounded=0;" parent="1" target="YJB3zisdZ_xQfk0tqpdA-24" edge="1">
          <mxGeometry relative="1" as="geometry">
            <mxPoint x="414" y="399.97" as="sourcePoint" />
            <Array as="points">
              <mxPoint x="444" y="400" />
              <mxPoint x="444" y="430" />
            </Array>
            <mxPoint x="414" y="419.95000000000005" as="targetPoint" />
          </mxGeometry>
        </mxCell>
        <mxCell id="YJB3zisdZ_xQfk0tqpdA-39" value="&lt;font style=&quot;font-size: 9px;&quot;&gt;new_bookCopy&amp;nbsp;&lt;/font&gt;&lt;div&gt;&lt;font style=&quot;font-size: 9px;&quot;&gt;=&amp;nbsp;&lt;/font&gt;&lt;span style=&quot;font-size: 9px; background-color: initial;&quot;&gt;readerCheckUp(reader,&amp;nbsp;&lt;/span&gt;&lt;div&gt;&lt;font style=&quot;font-size: 9px;&quot;&gt;preferences,id_res)&lt;/font&gt;&lt;/div&gt;&lt;/div&gt;" style="text;html=1;align=center;verticalAlign=middle;resizable=0;points=[];autosize=1;strokeColor=none;fillColor=none;" parent="1" vertex="1">
          <mxGeometry x="440" y="390" width="130" height="60" as="geometry" />
        </mxCell>
        <mxCell id="YJB3zisdZ_xQfk0tqpdA-40" value="&lt;font style=&quot;font-size: 9px;&quot;&gt;opt[new_bookCopy != null]&lt;/font&gt;" style="shape=umlFrame;whiteSpace=wrap;html=1;pointerEvents=0;width=130;height=30;" parent="1" vertex="1">
          <mxGeometry x="400" y="470" width="380" height="140" as="geometry" />
        </mxCell>
        <mxCell id="YJB3zisdZ_xQfk0tqpdA-41" value="" style="endArrow=block;endFill=1;html=1;edgeStyle=orthogonalEdgeStyle;align=left;verticalAlign=top;rounded=0;" parent="1" edge="1">
          <mxGeometry x="-1" relative="1" as="geometry">
            <mxPoint x="414" y="539.71" as="sourcePoint" />
            <mxPoint x="574" y="539.71" as="targetPoint" />
            <mxPoint as="offset" />
            <Array as="points">
              <mxPoint x="509" y="539.71" />
              <mxPoint x="509" y="539.71" />
            </Array>
          </mxGeometry>
        </mxCell>
        <mxCell id="YJB3zisdZ_xQfk0tqpdA-42" value="&lt;font style=&quot;font-size: 9px;&quot;&gt;updatePreferences(&lt;/font&gt;&lt;div&gt;&lt;font style=&quot;font-size: 9px;&quot;&gt;preferences: Preferences)&lt;/font&gt;&lt;/div&gt;" style="text;html=1;align=center;verticalAlign=middle;resizable=0;points=[];autosize=1;strokeColor=none;fillColor=none;" parent="1" vertex="1">
          <mxGeometry x="429" y="500" width="130" height="40" as="geometry" />
        </mxCell>
        <mxCell id="YJB3zisdZ_xQfk0tqpdA-43" value="" style="endArrow=block;endFill=1;html=1;edgeStyle=orthogonalEdgeStyle;align=left;verticalAlign=top;rounded=0;" parent="1" source="KaEUx5yTtzWXcer0-Ha--1" edge="1">
          <mxGeometry x="-1" relative="1" as="geometry">
            <mxPoint x="590" y="549.71" as="sourcePoint" />
            <mxPoint x="755" y="550" as="targetPoint" />
            <mxPoint as="offset" />
            <Array as="points">
              <mxPoint x="670" y="550" />
              <mxPoint x="670" y="550" />
            </Array>
          </mxGeometry>
        </mxCell>
        <mxCell id="YJB3zisdZ_xQfk0tqpdA-45" value="&lt;font style=&quot;font-size: 9px;&quot;&gt;preferences.UpdateBookCopy(&lt;/font&gt;&lt;div&gt;&lt;font style=&quot;font-size: 9px;&quot;&gt;preferences)&lt;/font&gt;&lt;/div&gt;" style="text;html=1;align=center;verticalAlign=middle;resizable=0;points=[];autosize=1;strokeColor=none;fillColor=none;" parent="1" vertex="1">
          <mxGeometry x="600" y="510" width="150" height="40" as="geometry" />
        </mxCell>
        <mxCell id="YJB3zisdZ_xQfk0tqpdA-46" value="" style="endArrow=open;endSize=12;dashed=1;html=1;rounded=0;" parent="1" edge="1">
          <mxGeometry width="160" relative="1" as="geometry">
            <mxPoint x="405" y="690" as="sourcePoint" />
            <mxPoint x="119.9699999999998" y="690" as="targetPoint" />
          </mxGeometry>
        </mxCell>
        <mxCell id="l3Nh4HpoFH7ZT9IThbxy-1" value="&lt;font style=&quot;font-size: 9px;&quot;&gt;libraryStaff.ReaderService()&lt;/font&gt;" style="text;html=1;align=center;verticalAlign=middle;resizable=0;points=[];autosize=1;strokeColor=none;fillColor=none;" parent="1" vertex="1">
          <mxGeometry x="165" y="248" width="130" height="30" as="geometry" />
        </mxCell>
        <mxCell id="KaEUx5yTtzWXcer0-Ha--1" value="" style="html=1;points=[[0,0,0,0,5],[0,1,0,0,-5],[1,0,0,0,5],[1,1,0,0,-5]];perimeter=orthogonalPerimeter;outlineConnect=0;targetShapes=umlLifeline;portConstraint=eastwest;newEdgeStyle={&quot;curved&quot;:0,&quot;rounded&quot;:0};" vertex="1" parent="1">
          <mxGeometry x="575" y="540" width="10" height="30" as="geometry" />
        </mxCell>
        <mxCell id="KaEUx5yTtzWXcer0-Ha--3" value="" style="endArrow=open;endSize=12;dashed=1;html=1;rounded=0;" edge="1" parent="1" target="YJB3zisdZ_xQfk0tqpdA-24">
          <mxGeometry width="160" relative="1" as="geometry">
            <mxPoint x="755.03" y="580" as="sourcePoint" />
            <mxPoint x="469.9999999999998" y="580" as="targetPoint" />
          </mxGeometry>
        </mxCell>
      </root>
    </mxGraphModel>
  </diagram>
  <diagram id="a7ns2n16CXBNmLfBDM0L" name="SD2">
    <mxGraphModel dx="2442" dy="443" grid="1" gridSize="10" guides="1" tooltips="1" connect="1" arrows="1" fold="1" page="1" pageScale="1" pageWidth="827" pageHeight="1169" math="0" shadow="0">
      <root>
        <mxCell id="0" />
        <mxCell id="1" parent="0" />
        <mxCell id="6RctxTQbn7jA8UyajEi0-1" value="&lt;span style=&quot;text-wrap-mode: nowrap;&quot;&gt;sd checkAvailability(w: MedicalWorker)&lt;/span&gt;" style="shape=umlFrame;whiteSpace=wrap;html=1;pointerEvents=0;gradientColor=none;swimlaneFillColor=default;width=238;height=30;" parent="1" vertex="1">
          <mxGeometry x="-1538.35" y="40" width="550" height="390" as="geometry" />
        </mxCell>
        <mxCell id="6RctxTQbn7jA8UyajEi0-2" value=":MedicalWorker" style="shape=umlLifeline;perimeter=lifelinePerimeter;whiteSpace=wrap;html=1;container=1;dropTarget=0;collapsible=0;recursiveResize=0;outlineConnect=0;portConstraint=eastwest;newEdgeStyle={&quot;curved&quot;:0,&quot;rounded&quot;:0};" parent="1" vertex="1">
          <mxGeometry x="-1388.35" y="90" width="100" height="340" as="geometry" />
        </mxCell>
        <mxCell id="E8eBlwKSeClwFS0IbUn1-1" value="" style="html=1;points=[[0,0,0,0,5],[0,1,0,0,-5],[1,0,0,0,5],[1,1,0,0,-5]];perimeter=orthogonalPerimeter;outlineConnect=0;targetShapes=umlLifeline;portConstraint=eastwest;newEdgeStyle={&quot;curved&quot;:0,&quot;rounded&quot;:0};" parent="6RctxTQbn7jA8UyajEi0-2" vertex="1">
          <mxGeometry x="45" y="50" width="10" height="280" as="geometry" />
        </mxCell>
        <mxCell id="hULWhXPQY1vZLs8APKxD-5" value="compute" style="html=1;align=left;spacingLeft=2;endArrow=block;rounded=0;edgeStyle=orthogonalEdgeStyle;curved=0;rounded=0;" parent="6RctxTQbn7jA8UyajEi0-2" target="E8eBlwKSeClwFS0IbUn1-1" edge="1">
          <mxGeometry relative="1" as="geometry">
            <mxPoint x="55" y="220" as="sourcePoint" />
            <Array as="points">
              <mxPoint x="85" y="220" />
              <mxPoint x="85" y="250" />
            </Array>
            <mxPoint x="60.34999999999991" y="250" as="targetPoint" />
          </mxGeometry>
        </mxCell>
        <mxCell id="6RctxTQbn7jA8UyajEi0-3" value=":TimeSheet" style="shape=umlLifeline;perimeter=lifelinePerimeter;whiteSpace=wrap;html=1;container=1;dropTarget=0;collapsible=0;recursiveResize=0;outlineConnect=0;portConstraint=eastwest;newEdgeStyle={&quot;curved&quot;:0,&quot;rounded&quot;:0};" parent="1" vertex="1">
          <mxGeometry x="-1098.35" y="90" width="100" height="340" as="geometry" />
        </mxCell>
        <mxCell id="WRwWexdqhhIisoKOPa96-3" value="" style="html=1;points=[[0,0,0,0,5],[0,1,0,0,-5],[1,0,0,0,5],[1,1,0,0,-5]];perimeter=orthogonalPerimeter;outlineConnect=0;targetShapes=umlLifeline;portConstraint=eastwest;newEdgeStyle={&quot;curved&quot;:0,&quot;rounded&quot;:0};" parent="6RctxTQbn7jA8UyajEi0-3" vertex="1">
          <mxGeometry x="45" y="70" width="10" height="50" as="geometry" />
        </mxCell>
        <mxCell id="E8eBlwKSeClwFS0IbUn1-3" value="" style="html=1;verticalAlign=bottom;endArrow=block;curved=0;rounded=0;" parent="1" target="E8eBlwKSeClwFS0IbUn1-1" edge="1">
          <mxGeometry width="80" relative="1" as="geometry">
            <mxPoint x="-1538.35" y="160" as="sourcePoint" />
            <mxPoint x="-1458.35" y="160" as="targetPoint" />
          </mxGeometry>
        </mxCell>
        <mxCell id="WRwWexdqhhIisoKOPa96-4" value="getSchedule(worker)" style="html=1;verticalAlign=bottom;endArrow=block;curved=0;rounded=0;" parent="1" edge="1">
          <mxGeometry width="80" relative="1" as="geometry">
            <mxPoint x="-1333.35" y="170" as="sourcePoint" />
            <mxPoint x="-1053.35" y="170" as="targetPoint" />
          </mxGeometry>
        </mxCell>
        <mxCell id="WRwWexdqhhIisoKOPa96-5" value="timesheets" style="html=1;verticalAlign=bottom;endArrow=open;dashed=1;endSize=8;curved=0;rounded=0;exitX=0;exitY=1;exitDx=0;exitDy=-5;exitPerimeter=0;" parent="1" source="WRwWexdqhhIisoKOPa96-3" target="E8eBlwKSeClwFS0IbUn1-1" edge="1">
          <mxGeometry relative="1" as="geometry">
            <mxPoint x="-1188.35" y="300" as="sourcePoint" />
            <mxPoint x="-1268.35" y="300" as="targetPoint" />
          </mxGeometry>
        </mxCell>
        <mxCell id="WRwWexdqhhIisoKOPa96-6" value="loop [for each ts in timesheets]" style="shape=umlFrame;whiteSpace=wrap;html=1;pointerEvents=0;width=146;height=30;" parent="1" vertex="1">
          <mxGeometry x="-1354.35" y="230" width="236" height="150" as="geometry" />
        </mxCell>
        <mxCell id="WRwWexdqhhIisoKOPa96-7" value="break [ts in datetimes]" style="shape=umlFrame;whiteSpace=wrap;html=1;pointerEvents=0;width=140;height=30;" parent="1" vertex="1">
          <mxGeometry x="-1388.35" y="275" width="220" height="85" as="geometry" />
        </mxCell>
        <mxCell id="WRwWexdqhhIisoKOPa96-8" value="entry" style="html=1;verticalAlign=bottom;endArrow=open;dashed=1;endSize=8;curved=0;rounded=0;entryX=0.001;entryY=0.766;entryDx=0;entryDy=0;entryPerimeter=0;" parent="1" edge="1">
          <mxGeometry relative="1" as="geometry">
            <mxPoint x="-1343.35" y="347.74" as="sourcePoint" />
            <mxPoint x="-1537.8" y="347.74" as="targetPoint" />
          </mxGeometry>
        </mxCell>
        <mxCell id="WRwWexdqhhIisoKOPa96-9" value="" style="html=1;verticalAlign=bottom;endArrow=open;dashed=1;endSize=8;curved=0;rounded=0;exitX=0;exitY=1;exitDx=0;exitDy=-5;exitPerimeter=0;entryX=-0.003;entryY=0.963;entryDx=0;entryDy=0;entryPerimeter=0;" parent="1" source="E8eBlwKSeClwFS0IbUn1-1" target="6RctxTQbn7jA8UyajEi0-1" edge="1">
          <mxGeometry relative="1" as="geometry">
            <mxPoint x="-1188.35" y="230" as="sourcePoint" />
            <mxPoint x="-1268.35" y="230" as="targetPoint" />
          </mxGeometry>
        </mxCell>
      </root>
    </mxGraphModel>
  </diagram>
  <diagram id="8V-jSC9RnYeYwfoJHyFh" name="SD3">
    <mxGraphModel dx="951" dy="534" grid="1" gridSize="10" guides="1" tooltips="1" connect="1" arrows="1" fold="1" page="1" pageScale="1" pageWidth="827" pageHeight="1169" math="0" shadow="0">
      <root>
        <mxCell id="0" />
        <mxCell id="1" parent="0" />
        <mxCell id="_Vtow9UBV0C9BSCzTUur-4" value=":Doctor" style="shape=umlLifeline;perimeter=lifelinePerimeter;whiteSpace=wrap;html=1;container=1;dropTarget=0;collapsible=0;recursiveResize=0;outlineConnect=0;portConstraint=eastwest;newEdgeStyle={&quot;curved&quot;:0,&quot;rounded&quot;:0};" parent="1" vertex="1">
          <mxGeometry x="419" y="90" width="100" height="610" as="geometry" />
        </mxCell>
        <mxCell id="6pYHSUjwthRizevOBF00-12" value="" style="endArrow=none;dashed=1;html=1;rounded=0;exitX=0.073;exitY=0.999;exitDx=0;exitDy=0;exitPerimeter=0;" parent="1" source="BXQw4HetUYAuLP_DdRt9-1" edge="1">
          <mxGeometry width="50" height="50" relative="1" as="geometry">
            <mxPoint x="160" y="360" as="sourcePoint" />
            <mxPoint x="125" y="160" as="targetPoint" />
          </mxGeometry>
        </mxCell>
        <mxCell id="BXQw4HetUYAuLP_DdRt9-1" value="cameAppoitment(a: Appointment)" style="shape=umlFrame;whiteSpace=wrap;html=1;pointerEvents=0;width=240;height=40;" parent="1" vertex="1">
          <mxGeometry x="60" y="30" width="890" height="670" as="geometry" />
        </mxCell>
        <mxCell id="BXQw4HetUYAuLP_DdRt9-2" value="Patient" style="shape=umlActor;verticalLabelPosition=bottom;verticalAlign=top;html=1;" parent="1" vertex="1">
          <mxGeometry x="110" y="80" width="30" height="60" as="geometry" />
        </mxCell>
        <mxCell id="BXQw4HetUYAuLP_DdRt9-4" value="a :Appointment" style="shape=umlLifeline;perimeter=lifelinePerimeter;whiteSpace=wrap;html=1;container=1;dropTarget=0;collapsible=0;recursiveResize=0;outlineConnect=0;portConstraint=eastwest;newEdgeStyle={&quot;curved&quot;:0,&quot;rounded&quot;:0};" parent="1" vertex="1">
          <mxGeometry x="250" y="90" width="100" height="610" as="geometry" />
        </mxCell>
        <mxCell id="BXQw4HetUYAuLP_DdRt9-5" value=":MedicalCard" style="shape=umlLifeline;perimeter=lifelinePerimeter;whiteSpace=wrap;html=1;container=1;dropTarget=0;collapsible=0;recursiveResize=0;outlineConnect=0;portConstraint=eastwest;newEdgeStyle={&quot;curved&quot;:0,&quot;rounded&quot;:0};" parent="1" vertex="1">
          <mxGeometry x="600" y="90" width="100" height="610" as="geometry" />
        </mxCell>
        <mxCell id="BXQw4HetUYAuLP_DdRt9-24" value="" style="html=1;points=[[0,0,0,0,5],[0,1,0,0,-5],[1,0,0,0,5],[1,1,0,0,-5]];perimeter=orthogonalPerimeter;outlineConnect=0;targetShapes=umlLifeline;portConstraint=eastwest;newEdgeStyle={&quot;curved&quot;:0,&quot;rounded&quot;:0};" parent="BXQw4HetUYAuLP_DdRt9-5" vertex="1">
          <mxGeometry x="45" y="250" width="10" height="300" as="geometry" />
        </mxCell>
        <mxCell id="BXQw4HetUYAuLP_DdRt9-6" value=":Diagnosis" style="shape=umlLifeline;perimeter=lifelinePerimeter;whiteSpace=wrap;html=1;container=1;dropTarget=0;collapsible=0;recursiveResize=0;outlineConnect=0;portConstraint=eastwest;newEdgeStyle={&quot;curved&quot;:0,&quot;rounded&quot;:0};" parent="1" vertex="1">
          <mxGeometry x="820" y="90" width="100" height="610" as="geometry" />
        </mxCell>
        <mxCell id="6pYHSUjwthRizevOBF00-9" value="" style="html=1;points=[[0,0,0,0,5],[0,1,0,0,-5],[1,0,0,0,5],[1,1,0,0,-5]];perimeter=orthogonalPerimeter;outlineConnect=0;targetShapes=umlLifeline;portConstraint=eastwest;newEdgeStyle={&quot;curved&quot;:0,&quot;rounded&quot;:0};" parent="BXQw4HetUYAuLP_DdRt9-6" vertex="1">
          <mxGeometry x="45" y="470" width="10" height="40" as="geometry" />
        </mxCell>
        <mxCell id="BXQw4HetUYAuLP_DdRt9-7" value="" style="html=1;points=[[0,0,0,0,5],[0,1,0,0,-5],[1,0,0,0,5],[1,1,0,0,-5]];perimeter=orthogonalPerimeter;outlineConnect=0;targetShapes=umlLifeline;portConstraint=eastwest;newEdgeStyle={&quot;curved&quot;:0,&quot;rounded&quot;:0};" parent="1" vertex="1">
          <mxGeometry x="120" y="170" width="10" height="500" as="geometry" />
        </mxCell>
        <mxCell id="BXQw4HetUYAuLP_DdRt9-10" value="" style="html=1;points=[[0,0,0,0,5],[0,1,0,0,-5],[1,0,0,0,5],[1,1,0,0,-5]];perimeter=orthogonalPerimeter;outlineConnect=0;targetShapes=umlLifeline;portConstraint=eastwest;newEdgeStyle={&quot;curved&quot;:0,&quot;rounded&quot;:0};" parent="1" vertex="1">
          <mxGeometry x="464" y="260" width="10" height="390" as="geometry" />
        </mxCell>
        <mxCell id="BXQw4HetUYAuLP_DdRt9-25" value="getPatientDiagnosis()" style="html=1;verticalAlign=bottom;endArrow=block;curved=0;rounded=0;" parent="1" edge="1">
          <mxGeometry width="80" relative="1" as="geometry">
            <mxPoint x="474" y="373.5" as="sourcePoint" />
            <mxPoint x="645" y="373.5" as="targetPoint" />
          </mxGeometry>
        </mxCell>
        <mxCell id="BXQw4HetUYAuLP_DdRt9-26" value="diagnosis = Diagnosis[*]" style="html=1;verticalAlign=bottom;endArrow=open;dashed=1;endSize=8;curved=0;rounded=0;exitX=0;exitY=1;exitDx=0;exitDy=-5;exitPerimeter=0;" parent="1" edge="1">
          <mxGeometry x="0.0002" relative="1" as="geometry">
            <mxPoint x="645" y="421" as="sourcePoint" />
            <mxPoint x="474" y="421" as="targetPoint" />
            <mxPoint as="offset" />
          </mxGeometry>
        </mxCell>
        <mxCell id="6pYHSUjwthRizevOBF00-2" value="new_treatment&lt;br&gt;&lt;div&gt;= patientCheckup(&lt;div&gt;patient,&amp;nbsp;&lt;span style=&quot;text-align: center;&quot;&gt;diagnosis&lt;/span&gt;,&lt;/div&gt;&lt;div&gt;cm_res)&lt;/div&gt;&lt;/div&gt;" style="html=1;align=left;spacingLeft=2;endArrow=block;rounded=0;edgeStyle=orthogonalEdgeStyle;curved=0;rounded=0;" parent="1" edge="1">
          <mxGeometry x="0.1554" y="6" relative="1" as="geometry">
            <mxPoint x="474" y="438" as="sourcePoint" />
            <Array as="points">
              <mxPoint x="504" y="438" />
              <mxPoint x="504" y="468" />
            </Array>
            <mxPoint x="474" y="468" as="targetPoint" />
            <mxPoint as="offset" />
          </mxGeometry>
        </mxCell>
        <mxCell id="6pYHSUjwthRizevOBF00-4" value="opt&amp;nbsp;&lt;span style=&quot;text-wrap-mode: nowrap;&quot;&gt;[new_treatment != null]&lt;/span&gt;" style="shape=umlFrame;whiteSpace=wrap;html=1;pointerEvents=0;width=176;height=30;" parent="1" vertex="1">
          <mxGeometry x="454" y="510" width="431" height="100" as="geometry" />
        </mxCell>
        <mxCell id="6pYHSUjwthRizevOBF00-5" value="updateDiagnosis(&lt;div&gt;diagnosis: Diagnosis)&lt;/div&gt;" style="html=1;verticalAlign=bottom;endArrow=block;curved=0;rounded=0;" parent="1" edge="1">
          <mxGeometry width="80" relative="1" as="geometry">
            <mxPoint x="474" y="573" as="sourcePoint" />
            <mxPoint x="645" y="573" as="targetPoint" />
          </mxGeometry>
        </mxCell>
        <mxCell id="6pYHSUjwthRizevOBF00-8" value="diagnosis.UpdateTreatment(&lt;div&gt;treatment: string)&lt;/div&gt;" style="html=1;verticalAlign=bottom;endArrow=block;curved=0;rounded=0;" parent="1" edge="1">
          <mxGeometry width="80" relative="1" as="geometry">
            <mxPoint x="655" y="591.5" as="sourcePoint" />
            <mxPoint x="865.0000000000002" y="591.5" as="targetPoint" />
          </mxGeometry>
        </mxCell>
        <mxCell id="6pYHSUjwthRizevOBF00-11" value="" style="html=1;verticalAlign=bottom;endArrow=open;dashed=1;endSize=8;curved=0;rounded=0;" parent="1" edge="1">
          <mxGeometry relative="1" as="geometry">
            <mxPoint x="464" y="643.5" as="sourcePoint" />
            <mxPoint x="135" y="643.5" as="targetPoint" />
          </mxGeometry>
        </mxCell>
        <mxCell id="qJcW2Ex0Gpp9v0WJSqWM-2" value="complaints =&amp;nbsp;&lt;div&gt;getComplaints()&lt;/div&gt;" style="html=1;align=left;spacingLeft=2;endArrow=block;rounded=0;edgeStyle=orthogonalEdgeStyle;curved=0;rounded=0;" parent="1" source="BXQw4HetUYAuLP_DdRt9-7" target="BXQw4HetUYAuLP_DdRt9-7" edge="1">
          <mxGeometry x="-0.1666" y="10" relative="1" as="geometry">
            <mxPoint x="135" y="230" as="sourcePoint" />
            <Array as="points">
              <mxPoint x="170" y="190" />
              <mxPoint x="170" y="230" />
            </Array>
            <mxPoint x="135" y="230" as="targetPoint" />
            <mxPoint as="offset" />
          </mxGeometry>
        </mxCell>
        <mxCell id="qJcW2Ex0Gpp9v0WJSqWM-5" value="" style="html=1;verticalAlign=bottom;endArrow=block;curved=0;rounded=0;" parent="1" edge="1">
          <mxGeometry width="80" relative="1" as="geometry">
            <mxPoint x="130" y="283" as="sourcePoint" />
            <mxPoint x="464" y="283" as="targetPoint" />
          </mxGeometry>
        </mxCell>
        <mxCell id="qJcW2Ex0Gpp9v0WJSqWM-6" value="mc = a.MedicalCard" style="html=1;verticalAlign=bottom;endArrow=block;curved=0;rounded=0;" parent="1" edge="1">
          <mxGeometry width="80" relative="1" as="geometry">
            <mxPoint x="464" y="346" as="sourcePoint" />
            <mxPoint x="299.5" y="346" as="targetPoint" />
          </mxGeometry>
        </mxCell>
        <mxCell id="_6d4G-XX9__8_DAr_CKI-1" value="doc=a.staff" style="html=1;verticalAlign=bottom;endArrow=block;curved=0;rounded=0;" parent="1" edge="1">
          <mxGeometry width="80" relative="1" as="geometry">
            <mxPoint x="130" y="253.0000000000001" as="sourcePoint" />
            <mxPoint x="299.5" y="253.0000000000001" as="targetPoint" />
          </mxGeometry>
        </mxCell>
        <mxCell id="IRh33gbW-PWielV_H4g9-2" value="cm_res = complaintsAnalysis(&lt;div style=&quot;background-color: rgb(251, 251, 251);&quot;&gt;complains: string[*])&lt;/div&gt;" style="html=1;align=left;spacingLeft=2;endArrow=block;rounded=0;edgeStyle=orthogonalEdgeStyle;curved=0;rounded=0;" parent="1" target="BXQw4HetUYAuLP_DdRt9-10" edge="1">
          <mxGeometry x="-1" y="16" relative="1" as="geometry">
            <mxPoint x="474" y="280" as="sourcePoint" />
            <Array as="points">
              <mxPoint x="474" y="300" />
              <mxPoint x="504" y="300" />
              <mxPoint x="504" y="320" />
            </Array>
            <mxPoint x="479" y="310" as="targetPoint" />
            <mxPoint as="offset" />
          </mxGeometry>
        </mxCell>
        <mxCell id="5PBPHiEYWOr9DqF2qMA6-1" value="schedulePatient(p: patient,&amp;nbsp;&lt;div&gt;complaints: string[*],&lt;/div&gt;&lt;div&gt;a: Appointment)&lt;/div&gt;" style="text;html=1;align=center;verticalAlign=middle;resizable=0;points=[];autosize=1;strokeColor=none;fillColor=none;" vertex="1" parent="1">
          <mxGeometry x="294" y="220" width="170" height="60" as="geometry" />
        </mxCell>
      </root>
    </mxGraphModel>
  </diagram>
</mxfile>
